<svg width="154" height="75" viewBox="0 0 154 75" fill="none" xmlns="http://www.w3.org/2000/svg">
<path fill-rule="evenodd" clip-rule="evenodd" d="M127.623 24.8586C127.593 26.1124 126.075 27.1675 124.981 26.6803C124.737 26.5719 124.497 26.13 124.493 25.8384C124.457 23.001 124.471 20.1625 124.471 17.2067C127.403 17.5561 127.622 17.7959 127.633 20.4353C127.639 21.9099 127.659 23.3852 127.623 24.8586ZM129.976 29.173C132.635 27.848 133.069 25.8508 132.954 23.516C132.921 23.4535 132.953 17.3634 132.951 17.3181C132.876 15.4835 132.271 14.0053 130.729 13.2535C129.325 12.5683 127.732 12.2025 126.182 11.9291C123.847 11.5179 121.477 11.3093 119 11V45C119.031 44.9599 124.48 44.2223 124.512 44.1587C124.544 44.0945 124.536 32.6237 124.536 31.4907C126.531 31.519 127.524 32.4016 127.644 34.083C127.691 34.7688 127.863 41.3938 127.961 44.237C129.773 43.9472 131.327 43.6992 132.921 43.444C132.921 40.8801 132.808 38.4969 132.951 36.1303C133.115 33.4196 133.031 30.898 129.976 29.173Z" fill="white"/>
<path fill-rule="evenodd" clip-rule="evenodd" d="M109.65 38.3754C109.665 39.4675 109.287 40.331 108.281 40.3363C107.354 40.3412 106.753 39.6037 106.752 38.4732C106.743 31.139 106.713 23.8053 106.666 16.4722C106.659 15.319 107.101 14.6853 108.22 14.7027C108.999 14.6955 109.777 15.2836 109.707 16.5382L109.728 27.6984L109.65 38.3754ZM115.745 15.898C115.745 13.3736 113.898 10.6213 111.054 8.90996C108.959 7.69968 106.46 7.68648 104.25 8.93156C101.773 10.3261 100.044 12.6332 100.017 15.8134C99.9835 19.7496 100.01 23.6865 100.01 27.6227H100.022C100.022 31.721 99.9951 35.8193 100.032 39.9169C100.052 42.1923 100.802 44.2636 102.703 45.4703C105.707 47.376 108.952 47.5266 112.075 45.7787C114.915 44.1898 116.03 41.4428 115.999 38.2188C115.929 31.157 115.603 22.9538 115.745 15.898Z" fill="white"/>
<path fill-rule="evenodd" clip-rule="evenodd" d="M144.673 33.4941C144.651 35.6325 144.03 36.2451 141.59 36.3427V19.1447C143.772 18.8905 144.798 19.7495 144.787 21.8294C144.77 25.7177 144.712 29.6059 144.673 33.4941ZM149.823 18.5315C149.764 15.9022 147.257 13.6307 144.653 13.4933C143.149 13.4138 140.019 13.2156 137.949 13.0964C136.962 13.0392 136.215 13 136 13V43C139.001 42.691 141.729 42.3561 144.466 42.1434C147.518 41.9067 149.968 39.6394 149.989 36.562C150.029 30.5522 149.957 24.54 149.823 18.5315Z" fill="white"/>
<path fill-rule="evenodd" clip-rule="evenodd" d="M49.1823 13.2237C49.1997 11.0903 50.8861 8.89007 53.4631 8.47414C57.5862 7.80889 61.7782 7.56015 65.9978 7.12945C65.6902 9.65281 65.4173 11.889 65.1126 14.3852C63.2439 14.5223 61.1143 14.6889 58.9841 14.8325C56.3927 15.0073 56.1253 15.2714 56.1097 17.7404C56.0689 24.4385 56.0209 31.1371 55.9855 37.8363C55.9675 41.2713 55.9771 41.2713 59.8003 41.1065V32.0275C59.6234 31.9944 59.3793 31.9382 59.1328 31.9046C58.8672 31.8685 58.6003 31.8526 58.1433 31.81V28.4932V25.2573H66.7907C66.7907 26.95 66.8098 28.583 66.7871 30.2154C66.7079 35.8482 66.6563 41.4822 66.4962 47.1132C66.4572 48.4892 67 48.8626 68.2582 48.8668C71.2178 48.875 74.0293 46.7274 74.494 43.4408C74.8137 41.1827 74.8047 38.7137 74.2182 36.5271C72.3626 29.6075 69.965 22.8279 68.1712 15.8947C66.8842 10.9207 68.4903 5.76881 72.9108 2.80294C77.4818 -0.26456 80.0234 -0.411081 85.0617 0.465093V6.85768C89.0024 7.32856 97.9676 8.52377 98 8.58817C98 8.58817 97.9346 15.3382 97.985 15.3754C95.8722 15.2029 93.9717 15.0481 91.9267 14.8815V25.122H96.5505C96.5643 25.109 96.4995 31.8591 96.5505 31.9093H91.8091C91.8091 32.62 91.8085 33.1807 91.8091 33.7414C91.8121 38.0472 91.8337 48.058 91.7689 48.1868C91.7479 48.2275 84.9495 48.7977 84.9387 48.8012V7.47862C82.3545 7.1005 80.2189 7.17435 77.9862 8.42215C75.1291 10.0185 75.7193 15.5751 76.2326 17.3103C78.2777 24.2181 80.7179 31.0166 82.6202 37.9592C84.3612 44.3146 81.1293 53.0615 73.2472 55.5589C70.9137 56.2986 68.8741 56.015 66.7391 55.3911C66.4278 55.3001 66.1472 54.5793 66.1286 54.1386C66.0584 52.4506 66.1004 50.7574 66.1004 48.8591C62.697 48.5058 59.3925 48.1891 56.0959 47.8069C54.873 47.6645 53.5837 47.564 52.4724 47.1008C50.0093 46.074 48.9982 43.9424 49 41.4515C49.0072 32.0422 49.1038 22.6329 49.1823 13.2237Z" fill="white"/>
<path fill-rule="evenodd" clip-rule="evenodd" d="M17.3131 42.6426C17.4485 43.0275 17.5364 43.4291 17.6968 43.9998C17.7003 44.0129 11.3392 43.3355 11.4104 43.3355C11.4455 43.3355 6.71377 30.6108 6.32244 30.4785V42.8023C4.08902 42.6021 1.97556 42.3715 0.00343131 42.1946C-0.0327927 42.1946 0.23087 15.597 0.180394 15.597C0.145358 15.597 6.07956 14.5991 6.21198 14.5663V25.1266C6.18645 25.1528 11.4912 14.014 11.4912 13.9491C11.4912 13.8931 18.0198 12.9947 17.9996 13C18.0537 12.9857 12.3344 27.6122 12.3802 27.6128C12.3701 27.6122 15.9681 38.8141 17.3131 42.6426Z" fill="white"/>
<path fill-rule="evenodd" clip-rule="evenodd" d="M26 45C23.9133 44.8233 21.9943 44.6603 20.003 44.4908C19.9734 43.8819 20.1725 12.6833 20.1725 12.7191C20.1725 12.7549 26.0193 11.9687 26 12.001V45Z" fill="white"/>
<path fill-rule="evenodd" clip-rule="evenodd" d="M40.423 45.4732C38.9078 40.5591 35.1696 29.5728 35.0024 29.5804V46.1137C32.7264 45.8276 30.8923 45.5959 29 45.3576V12.3879C28.9881 12.4026 34.3278 11.5558 34.2921 11.5912C34.2564 11.6266 40.2267 29.1116 40.3801 29.0998C40.3801 27.7564 40.3766 26.4125 40.3813 25.0691C40.3956 20.7701 40.5063 10.5951 40.5419 10.5951C40.5925 10.5951 46.0042 9.96769 46 10.0013V47C44.3171 46.8909 40.8781 46.7046 40.8781 46.6344C40.8781 46.5223 40.5717 45.955 40.423 45.4732Z" fill="white"/>
<path fill-rule="evenodd" clip-rule="evenodd" d="M13.8267 73.3038V75H10V73.3038H10.8941V68.7079H10V67H19V69.5502H17.1874V68.7079H12.7061V69.9956H16.4825V71.7521H12.7061V73.3038H13.8267Z" fill="white"/>
<path fill-rule="evenodd" clip-rule="evenodd" d="M25.947 73.3038H27V75H23V73.3038H24.0523V68.7079H23V67H27V68.7079H25.947V73.3038Z" fill="white"/>
<path fill-rule="evenodd" clip-rule="evenodd" d="M34.573 70.1514H37.7685C38.487 70.1514 38.8456 69.8166 38.8456 69.3668C38.8456 68.9281 38.4986 68.6276 37.8162 68.6276C37.7923 68.6276 37.7685 68.6276 34.573 68.6737V70.1514ZM37.4098 71.606H34.573V73.1415H35.6502V74.7692H32V73.1415C32.5502 73.1415 32.7057 73.1415 32.8501 73.1303V68.7085C32.598 68.7085 32.347 68.7315 32 68.7315V67.0118C37.8523 67.0118 37.9478 67 38.0439 67C39.8512 67 41 67.9582 41 69.2853C41 70.371 40.3537 71.1674 39.3004 71.3634L39.7313 72.7956C39.839 73.1646 40.1266 73.2915 40.4014 73.2915C40.6169 73.2915 40.8207 73.2224 40.9523 73.1415V74.7692C40.4736 74.9197 40.055 75 39.6952 75C38.7379 75 38.1993 74.4923 37.96 73.6498L37.4098 71.606Z" fill="white"/>
<path fill-rule="evenodd" clip-rule="evenodd" d="M54.2588 73.3038V72.1373H56C56 72.1373 55.9875 74.9883 55.9875 75H47V73.3038H47.8709V68.7079H47V67H55.7668V69.5502H54.0011V68.7079H49.6359V69.9956H52.4562V71.7521H49.6359V73.3038H54.2588Z" fill="white"/>
<path fill-rule="evenodd" clip-rule="evenodd" d="M76.278 71.5126C75.826 74.3509 73.5936 75 71.7096 75C68.9612 75 67 73.0528 67 70.4046C67 67.5279 69.1031 66 71.8001 66C72.5616 66 73.3488 66.1276 74.0582 66.5859L74.239 66.2552H75.8518V68.9789H74.136L74.0456 68.6866C73.5422 68.0246 72.6262 67.8078 71.7486 67.8078C70.0837 67.8078 69.0127 68.7628 69.0127 70.4046C69.0127 72.1616 70.2902 73.116 71.9677 73.116C73.1423 73.116 74.0971 72.5562 74.433 71.5126H71.7869V69.8832H77V71.5126H76.278Z" fill="white"/>
<path fill-rule="evenodd" clip-rule="evenodd" d="M84.573 70.1514H87.7685C88.487 70.1514 88.8456 69.8166 88.8456 69.3668C88.8456 68.9281 88.4986 68.6276 87.8162 68.6276C87.7923 68.6276 87.7685 68.6276 84.573 68.6737V70.1514ZM87.4098 71.606H84.573V73.1415H85.6502V74.7692H82V73.1415C82.5502 73.1415 82.7057 73.1415 82.8495 73.1303V68.7085C82.598 68.7085 82.347 68.7315 82 68.7315V67.0118C87.8523 67.0118 87.9478 67 88.0439 67C89.8512 67 91 67.9582 91 69.2853C91 70.371 90.3537 71.1674 89.3004 71.3634L89.7313 72.7956C89.839 73.1646 90.1266 73.2915 90.4014 73.2915C90.6169 73.2915 90.8201 73.2224 90.9523 73.1415V74.7692C90.4736 74.9197 90.0544 75 89.6952 75C88.7379 75 88.1993 74.4923 87.96 73.6498L87.4098 71.606Z" fill="white"/>
<path fill-rule="evenodd" clip-rule="evenodd" d="M98.947 73.3038H100V75H96V73.3038H97.053V68.7079H96V67H100V68.7079H98.947V73.3038Z" fill="white"/>
<path fill-rule="evenodd" clip-rule="evenodd" d="M111.195 73.3038V72.1373H113V75H104V73.3038H104.897V68.7079H104V67H107.85V68.7079H106.714V73.3038H111.195Z" fill="white"/>
<path fill-rule="evenodd" clip-rule="evenodd" d="M125.195 73.3038V72.1373H127V75H118V73.3038H118.896V68.7079H118V67H121.85V68.7079H120.714V73.3038H125.195Z" fill="white"/>
<path fill-rule="evenodd" clip-rule="evenodd" d="M139.259 73.3038V72.1373H141C141 72.1373 140.987 74.9883 140.987 75H132V73.3038H132.871V68.7079H132V67H140.767V69.5502H139.001V68.7079H134.636V69.9956H137.457V71.7521H134.636V73.3038H139.259Z" fill="white"/>
<path fill-rule="evenodd" clip-rule="evenodd" d="M152.352 14.906L152.477 13.0877C152.48 13.0274 152.503 13 152.543 13H152.71C152.744 13 152.771 13.0219 152.787 13.0713L153.178 14.3952L153.566 13.0713C153.578 13.0219 153.605 13 153.639 13H153.822C153.857 13 153.88 13.0274 153.884 13.0877L154 14.906C154.003 14.9663 153.98 15 153.938 15H153.779C153.74 15 153.717 14.9718 153.713 14.917L153.639 13.7693L153.31 14.895C153.294 14.9389 153.267 14.9608 153.232 14.9608H153.124C153.089 14.9608 153.062 14.9389 153.051 14.895L152.717 13.7748L152.647 14.917C152.643 14.9718 152.62 15 152.581 15H152.414C152.372 15 152.349 14.9663 152.352 14.906ZM151.489 14.9115V13.3737H151.066C151.027 13.3737 151 13.3353 151 13.2797V13.0932C151 13.0384 151.027 13 151.066 13H152.205C152.248 13 152.272 13.0384 152.272 13.0932V13.2797C152.272 13.3353 152.248 13.3737 152.205 13.3737H151.783V14.9115C151.783 14.9663 151.76 15 151.721 15H151.551C151.512 15 151.489 14.9663 151.489 14.9115Z" fill="white"/>
</svg>
