<svg width="22" height="19" viewBox="0 0 22 19" fill="none" xmlns="http://www.w3.org/2000/svg">
<path fill-rule="evenodd" clip-rule="evenodd" d="M19.5159 2.86999C20.4095 2.30606 21.0952 1.41185 21.417 0.346636C20.5803 0.870106 19.6557 1.24867 18.6693 1.45362C17.8821 0.565945 16.757 0.0124512 15.5118 0.0124512C13.123 0.0124512 11.1872 2.05542 11.1872 4.57486C11.1872 4.93254 11.2231 5.28109 11.2974 5.61397C7.70301 5.42338 4.51587 3.60886 2.38079 0.846608C2.00823 1.52281 1.79534 2.30606 1.79534 3.14152C1.79534 4.72368 2.55902 6.12047 3.72001 6.94026C3.01079 6.91677 2.34365 6.70921 1.75945 6.3698V6.42593C1.75945 8.6373 3.24967 10.4818 5.23127 10.8996C4.86738 11.0066 4.48616 11.0601 4.09009 11.0601C3.8116 11.0601 3.5393 11.0327 3.2769 10.9792C3.82645 12.7911 5.42436 14.1122 7.31808 14.1474C5.83652 15.3719 3.97127 16.1003 1.94511 16.1003C1.59607 16.1003 1.25074 16.0807 0.912842 16.0377C2.82761 17.3313 5.10131 18.0872 7.54458 18.0872C15.5032 18.0872 19.8525 11.1345 19.8525 5.10486C19.8525 4.90643 19.8501 4.70932 19.8414 4.51481C20.6868 3.87124 21.422 3.06711 22 2.15202C21.2239 2.51492 20.3897 2.76034 19.5159 2.86999Z" fill="white"/>
</svg>
