<svg width="206" height="104" viewBox="0 0 206 104" fill="none" xmlns="http://www.w3.org/2000/svg">
<path fill-rule="evenodd" clip-rule="evenodd" d="M197.496 71.8923C192.43 78.0221 185.151 83.5182 175.861 88.228C156.661 97.9625 130.785 103.324 103 103.324C75.2155 103.324 49.3395 97.9625 30.1388 88.228C20.8493 83.5182 13.5703 78.0221 8.50379 71.8923C3.30535 65.6028 0.669768 58.91 0.669768 52C0.669768 45.09 3.30535 38.3972 8.50379 32.1077C13.5703 25.9779 20.8493 20.4818 30.1388 15.772C49.3395 6.0377 75.2155 0.676402 103 0.676402C130.785 0.676402 156.661 6.0377 175.861 15.772C185.151 20.4818 192.43 25.9779 197.496 32.1077C202.695 38.3972 205.33 45.09 205.33 52C205.33 58.91 202.695 65.6028 197.496 71.8923ZM198.01 31.6742C192.884 25.4726 185.534 19.9188 176.161 15.1674C156.869 5.38638 130.887 0 103 0C75.1132 0 49.1306 5.38638 29.8388 15.1674C20.4667 19.9188 13.1158 25.4726 7.98979 31.6742C2.68841 38.0886 0 44.9271 0 52C0 59.0729 2.68841 65.9117 7.98979 72.3261C13.1158 78.5277 20.4667 84.0812 29.8388 88.8329C49.1306 98.6136 75.1132 104 103 104C130.887 104 156.869 98.6136 176.161 88.8329C185.534 84.0812 192.884 78.5277 198.01 72.3261C203.312 65.9117 206 59.0729 206 52C206 44.9271 203.312 38.0886 198.01 31.6742Z" fill="#231F20"/>
<path fill-rule="evenodd" clip-rule="evenodd" d="M159.004 37C159.004 40.697 158.982 44.2467 159.039 47.795C159.045 48.1597 159.423 48.7126 159.806 48.8483C161.53 49.4575 163.92 48.138 163.967 46.57C164.024 44.7268 163.992 42.8818 163.983 41.0373C163.965 37.7369 163.621 37.4369 159.004 37Z" fill="#231F20"/>
<path fill-rule="evenodd" clip-rule="evenodd" d="M94.2335 89H92V91H94.2773C95.3723 91 96 90.6022 96 90.015V89.9951C96 89.3384 95.3285 89 94.2335 89Z" fill="#231F20"/>
<path fill-rule="evenodd" clip-rule="evenodd" d="M141.03 35.0004C139.568 34.9804 138.99 35.6974 139 37.002C139.062 45.2985 139.101 53.5955 139.113 61.8922C139.115 63.1712 139.899 64.0054 141.109 64C142.423 63.9943 142.917 63.0169 142.897 61.7819L143 49.7023L142.972 37.0769C143.063 35.6578 142.048 34.9923 141.03 35.0004Z" fill="#231F20"/>
<path fill-rule="evenodd" clip-rule="evenodd" d="M179 39.0503V59C182.815 58.8867 183.785 58.1761 183.82 55.6955C183.883 51.1852 183.972 46.6753 184 42.1648C184.015 39.7516 182.411 38.7555 179 39.0503Z" fill="#231F20"/>
<path fill-rule="evenodd" clip-rule="evenodd" d="M188.773 58.7263C188.748 62.1977 185.91 64.7548 182.372 65.0223C179.2 65.262 176.038 65.6396 172.56 65.9877V32.1485C172.809 32.1485 173.675 32.1925 174.819 32.2569C177.219 32.3915 180.845 32.6148 182.589 32.7046C185.606 32.86 188.513 35.4223 188.581 38.3877C188.736 45.1656 188.821 51.9472 188.773 58.7263ZM169.283 58.3342C169.114 61.0639 169.248 63.8122 169.248 66.7695C167.364 67.0635 165.527 67.3499 163.386 67.6837C163.27 64.405 163.068 56.7643 163.011 55.9729C162.871 54.0341 161.696 53.0161 159.339 52.984C159.339 54.2904 159.348 67.5192 159.31 67.5932C159.273 67.6671 152.834 68.5172 152.797 68.5632V29.352C155.724 29.7093 158.524 29.9494 161.285 30.4241C163.116 30.7388 164.999 31.1606 166.658 31.9507C168.48 32.8184 169.194 34.523 169.283 36.6385C169.285 36.6914 169.248 43.7143 169.286 43.7863C169.423 46.4793 168.91 48.7826 165.768 50.3111C169.377 52.3004 169.477 55.208 169.283 58.3342ZM144.758 69.5929C141.077 71.5721 137.252 71.4018 133.712 69.2439C131.47 67.8773 130.587 65.5322 130.563 62.9555C130.52 58.3154 130.551 53.6745 130.551 49.0342H130.536C130.536 44.5767 130.506 40.1189 130.546 35.6619C130.578 32.0608 132.615 29.4477 135.535 27.8687C138.14 26.4595 141.086 26.4742 143.555 27.8442C146.907 29.782 149.083 32.8984 149.083 35.7571C148.917 43.7471 149.302 53.0357 149.384 61.0326C149.421 64.6831 148.106 67.7936 144.758 69.5929ZM128.364 34.664C125.953 34.4659 123.785 34.2878 121.453 34.0961V45.8732H126.727C126.743 45.8583 126.669 53.6207 126.727 53.6787H121.318C121.318 54.4962 121.317 55.1407 121.318 55.7852C121.322 60.7374 121.346 72.2506 121.272 72.3985C121.248 72.4452 113.493 73.1007 113.481 73.1051V25.5827C110.533 25.1475 108.096 25.2325 105.549 26.6676C102.29 28.5036 102.963 34.8938 103.549 36.8899C105.882 44.8337 108.666 52.6519 110.835 60.6363C112.822 67.9451 109.135 78.0049 100.143 80.8771C97.4809 81.7274 95.154 81.4011 92.7185 80.6835C92.3636 80.5789 92.0436 79.7502 92.0225 79.2435C91.9421 77.3017 91.9902 75.3546 91.9902 73.1715C88.1076 72.7651 84.3378 72.4014 80.5772 71.9613C79.1818 71.7981 77.7114 71.6823 76.4433 71.1494C73.6339 69.9687 72.4799 67.5175 72.4822 64.6527C72.49 53.8317 72.6002 43.0104 72.6897 32.1896C72.7101 29.7363 74.6338 27.2058 77.5736 26.7278C82.2771 25.9626 87.0594 25.6765 91.8726 25.1813C91.5216 28.0828 91.2104 30.6549 90.8631 33.5253C88.7309 33.6832 86.3021 33.8743 83.8714 34.0396C80.9156 34.2405 80.6103 34.5445 80.593 37.3836C80.5462 45.0873 80.4912 52.7912 80.451 60.4948C80.4303 64.4452 80.4417 64.4452 84.8026 64.256V53.8143C84.6012 53.7764 84.323 53.7125 84.0413 53.6733C83.7391 53.6317 83.4335 53.6133 82.9127 53.5646V49.7501V46.0289H92.7771C92.7771 47.9753 92.7993 49.8532 92.7732 51.7303C92.6832 58.2087 92.6241 64.688 92.4414 71.1639C92.3968 72.7465 93.0162 73.1759 94.4513 73.1803C97.8281 73.1903 101.035 70.7206 101.566 66.9406C101.93 64.3433 101.919 61.504 101.251 58.9895C99.1339 51.0318 96.3987 43.2346 94.3523 35.2615C92.8841 29.5412 94.7163 23.6165 99.7592 20.2054C104.974 16.6778 107.873 16.5089 113.621 17.5168V24.868C118.117 25.4099 128.344 26.7848 128.381 26.8587C128.381 26.8587 128.306 34.6214 128.364 34.664ZM124.204 94.3656H117.761V85.9619H124.144V87.6065H119.61V89.3114H123.6V90.956H119.61V92.7208H124.204V94.3656ZM116.359 94.3656H110.279V85.9619H112.14V92.6848H116.359V94.3656ZM108.877 94.3656H102.797V85.9619H104.658V92.6848H108.877V94.3656ZM98.8196 94.3656H100.681V85.9619H98.8196V94.3656ZM95.1331 94.3656L93.3198 91.6763H91.8571V94.3656H89.9955V85.9619H93.864C94.9398 85.9619 95.7739 86.262 96.3299 86.8142C96.8014 87.2825 97.0552 87.9426 97.0552 88.7349V88.7592C97.0552 90.1157 96.3178 90.968 95.242 91.3643L97.3091 94.3656H95.1331ZM88.207 93.177C87.3367 93.9094 86.1399 94.5096 84.5926 94.5096C81.9572 94.5096 80.1442 92.6728 80.1442 90.1879V90.1637C80.1442 87.7747 82.0178 85.8178 84.5805 85.8178C86.1037 85.8178 87.0222 86.226 87.9048 86.9701L86.7321 88.3749C86.0793 87.8347 85.4993 87.5226 84.5199 87.5226C83.1661 87.5226 82.0903 88.7109 82.0903 90.1394V90.1637C82.0903 91.7003 83.154 92.829 84.653 92.829C85.33 92.829 85.9343 92.6608 86.4058 92.3247V91.1241H84.532V89.5273H88.207V93.177ZM68.8912 70.2822C66.956 70.1569 63.0007 69.9422 63.0007 69.8609C63.0007 69.7324 62.6483 69.0784 62.4775 68.523C60.7343 62.8613 56.4357 50.2032 56.243 50.2123V69.2615C53.626 68.9313 51.5163 68.665 49.3403 68.3904V30.4028C49.3263 30.4204 55.4674 29.4445 55.4264 29.4851C55.3855 29.5258 62.2522 49.6716 62.4282 49.6583C62.4282 48.1102 62.4238 46.562 62.4289 45.0141C62.4457 40.0614 62.5731 28.3374 62.614 28.3374C62.672 28.3374 68.8964 27.6148 68.8912 27.6535V70.2822ZM45.7833 67.894C43.4163 67.6923 41.2393 67.5072 38.9802 67.3146C38.9467 66.6217 39.1727 31.1116 39.1727 31.1523C39.1727 31.1929 45.8053 30.2982 45.7833 30.3347V67.894ZM36.2701 65.1266C36.4259 65.5655 36.5277 66.0234 36.7116 66.6745C36.7162 66.6895 29.3877 65.9167 29.4697 65.9167C29.5104 65.9167 24.0591 51.4048 23.6076 51.2542V65.3087C21.035 65.0803 18.6 64.8175 16.3274 64.6158C16.2865 64.6158 16.5901 34.2831 16.5319 34.2831C16.491 34.2831 23.3284 33.1447 23.4807 33.107V45.1509C23.4511 45.18 29.5632 32.4774 29.5632 32.4033C29.5632 32.3391 37.0847 31.3148 37.0615 31.3211C37.1236 31.3043 30.534 47.9856 30.5874 47.9861C30.5749 47.9856 34.7211 60.7604 36.2701 65.1266ZM102 3C46.7714 3 2 24.7143 2 51.5C2 78.2857 46.7714 100 102 100C157.229 100 202 78.2857 202 51.5C202 24.7143 157.229 3 102 3Z" fill="#231F20"/>
</svg>
