<svg
  class="circle"
  width="201"
  height="201"
  viewBox="0 0 201 201"
  fill="none"
  xmlns="http://www.w3.org/2000/svg"
>
  <mask
    id="mask0"
    mask-type="alpha"
    maskUnits="userSpaceOnUse"
    x="0"
    y="0"
    width="201"
    height="201"
  >
    <path fill-rule="evenodd" clip-rule="evenodd" d="M0 0.414307H200.113V200.527H0V0.414307Z" fill="white" />
  </mask>
  <g mask="url(#mask0)">
    <path
      fill-rule="evenodd"
      clip-rule="evenodd"
      d="M100.056 5.25533C47.554 5.25533 4.84084 47.9685 4.84084 100.471C4.84084 152.973 47.554 195.686 100.056 195.686C152.559 195.686 195.272 152.973 195.272 100.471C195.272 47.9685 152.559 5.25533 100.056 5.25533ZM100.056 200.527C44.8857 200.527 -0.000190735 155.641 -0.000190735 100.471C-0.000190735 45.2993 44.8857 0.414307 100.056 0.414307C155.228 0.414307 200.113 45.2993 200.113 100.471C200.113 155.641 155.228 200.527 100.056 200.527Z"
      fill="#CE4141"
    />
  </g>
  <path
    fill-rule="evenodd"
    clip-rule="evenodd"
    d="M23.7832 80.9258L24.1263 79C25.3177 79.2258 26.1195 79.3608 27.2953 79.582L26.9286 81.6483L26.1013 81.6521C25.8091 81.9838 25.3586 83.1974 25.1484 84.3782C24.9309 85.6059 24.97 86.7848 25.6944 86.9197C27.805 87.3189 26.863 79.0347 31.1761 79.85C33.982 80.3785 34.2577 83.3839 33.8491 85.6827C33.6225 86.9572 33.1474 87.9581 32.5658 88.6825L32.9126 88.749L32.513 91L28.9381 90.3262C29.0555 89.5774 29.1665 88.9552 29.2794 88.3207L30.3069 88.2401C30.9668 87.5148 31.3554 86.4643 31.5274 85.5018C31.6903 84.5844 31.9888 82.5545 30.9185 82.3531C28.7615 81.9454 29.9775 90.4415 25.4378 89.5849C22.874 89.1023 22.8021 85.8289 23.1498 83.8731C23.3327 82.8479 23.6685 81.8358 24.1372 81.2182L23.7832 80.9258Z"
    fill="#CE4141"
  />
  <path
    fill-rule="evenodd"
    clip-rule="evenodd"
    d="M31.7663 61.21L31.4841 60.8203L32.4003 59L35.861 60.6881L34.8861 62.6232L34.1983 62.4158C33.0852 62.6512 32.3356 63.5917 31.8741 64.509C30.9295 66.3872 31.4302 68.1361 33.338 69.067C35.3789 70.0615 37.2132 69.1605 38.1646 67.2689C38.8838 65.8431 38.5301 64.238 37.3092 63.2975L38.9788 61.9537C41.5764 63.5647 41.2991 66.4586 40.2066 68.6271C38.6457 71.7284 35.2702 72.8387 32.1945 71.3368C28.8533 69.7075 28.2732 66.4682 29.8037 63.4258C30.2358 62.5682 30.8316 61.7521 31.7663 61.21Z"
    fill="#CE4141"
  />
  <path
    fill-rule="evenodd"
    clip-rule="evenodd"
    d="M44.5259 50.0331L47.417 46.844C48.066 46.1289 48.0508 45.4514 47.5916 45.0225C47.1456 44.6043 46.5251 44.665 45.9084 45.3444C45.8875 45.3685 45.8647 45.3936 43.0211 48.625L44.5259 50.0331ZM48.5736 48.5894L46.0071 51.418L47.5707 52.8829L48.5442 51.8083L50.2018 53.359L46.8999 57L45.2423 55.4484C45.7395 54.901 45.8809 54.7448 45.9995 54.5906L41.4973 50.3771C41.2686 50.6277 41.0656 50.9004 40.7506 51.2474L39 49.608C44.2954 43.7687 44.3703 43.6636 44.4567 43.5673C46.0915 41.7641 48.1068 41.5309 49.4589 42.7953C50.5643 43.8294 50.791 45.2336 50.0377 46.472L51.885 47.4049C52.3585 47.6497 52.7484 47.4839 52.997 47.2093C53.1925 46.9953 53.3054 46.7255 53.3424 46.5173L55 48.068C54.7191 48.6886 54.4231 49.184 54.0977 49.5415C53.2323 50.4976 52.2266 50.5506 51.1516 49.9858L48.5736 48.5894Z"
    fill="#CE4141"
  />
  <path
    fill-rule="evenodd"
    clip-rule="evenodd"
    d="M60.1002 32.9251C58.3452 33.9867 57.9149 35.7343 59.0389 37.5877C60.2308 39.5521 62.0791 40.1732 63.8763 39.0841C65.6312 38.0224 66.0891 36.2572 64.965 34.4067C63.7731 32.4423 61.8973 31.8389 60.1002 32.9251ZM57.0217 39.0782C55.1351 35.9688 55.9153 32.7907 58.9161 30.9764C61.9307 29.1514 65.1733 29.9334 66.9823 32.9153C68.8699 36.0257 68.074 39.2106 65.0741 41.0278C62.0585 42.8499 58.8316 42.061 57.0217 39.0782Z"
    fill="#CE4141"
  />
  <path
    fill-rule="evenodd"
    clip-rule="evenodd"
    d="M85.1601 29.6311L84.7432 28.205L86.9792 27.6286L88 31.1242L76.8533 34L76.2476 31.9287L77.358 31.6427L75.7189 26.0305L74.6086 26.3174L74 24.2298L78.7678 23L79.3774 25.0876L77.9704 25.4496L79.6094 31.0609L85.1601 29.6311Z"
    fill="#CE4141"
  />
  <path
    fill-rule="evenodd"
    clip-rule="evenodd"
    d="M104.781 28.6703L104.806 27.0924L107 27.13L106.94 31L96 30.8118L96.0355 28.5197L97.1258 28.5381L97.2205 22.3278L96.1312 22.3085L96.1667 20L100.847 20.0811L100.812 22.3895L99.4302 22.3654L99.3354 28.5757L104.781 28.6703Z"
    fill="#CE4141"
  />
  <path
    fill-rule="evenodd"
    clip-rule="evenodd"
    d="M128.173 34.0875C128.173 34.0875 129.849 34.9477 130.189 35.1088C132.293 36.1007 134.143 35.41 135.059 33.5901C135.895 31.9264 135.17 30.3793 133.083 29.3931C132.741 29.2339 131.002 28.4656 131.002 28.4656L128.173 34.0875ZM137.42 34.6152C135.964 37.5104 132.89 38.8482 129.883 37.4308C129.231 37.122 124 34.5517 124 34.5517L125.025 32.5148C125.025 32.5148 125.825 32.9269 126.062 33.0406L128.846 27.504C128.609 27.3931 127.781 27.0379 127.781 27.0379L128.805 25C128.805 25 134.514 27.5665 134.796 27.7001C137.729 29.0824 138.762 31.9463 137.42 34.6152Z"
    fill="#CE4141"
  />
  <path
    fill-rule="evenodd"
    clip-rule="evenodd"
    d="M151.395 41.32C149.881 39.952 148.089 40.0399 146.641 41.6342C145.103 43.329 145.035 45.2629 146.586 46.664C148.1 48.0319 149.916 47.9656 151.365 46.3703C152.903 44.6774 152.946 42.7211 151.395 41.32ZM144.642 40.1404C147.075 37.461 150.333 37.301 152.921 39.6388C155.522 41.9893 155.697 45.2951 153.364 47.8661C150.93 50.5454 147.661 50.6937 145.072 48.3559C142.472 46.0064 142.308 42.7094 144.642 40.1404Z"
    fill="#CE4141"
  />
  <path
    fill-rule="evenodd"
    clip-rule="evenodd"
    d="M162.525 64.0009L167.253 63.0066L166.84 61.9423C167.484 61.5894 167.932 61.3368 168.569 60.9688L171 65.193L169.115 66.3349C168.705 65.6216 168.625 65.4844 168.54 65.3699L160.049 67L159.111 65.368L162.592 60.7048L156.939 61.597L156 59.9631L161.492 53.123C161.434 52.9915 161.354 52.8553 160.944 52.1419L162.829 51L165.253 55.2091L163.582 56.3141L162.887 55.4219L159.754 59.1873L164.392 58.3207L164.032 57.0956C164.675 56.7427 165.137 56.4825 165.774 56.1145L168.055 60.0785C167.435 60.4721 166.988 60.7616 166.376 61.1703L165.505 60.2535L162.525 64.0009Z"
    fill="#CE4141"
  />
  <path
    fill-rule="evenodd"
    clip-rule="evenodd"
    d="M175.795 88.346L175.56 87.2126L167.44 89L166.961 86.7013L172.577 79.1977L167.904 80.2272L168.2 81.6487L166.011 82.132L165 77.2745L167.19 76.7932L167.425 77.9265L173.356 76.6205L173.12 75.4852L175.325 75L176.042 78.4515L170.377 85.9483L175.097 84.9081L174.8 83.4866L176.99 83.0033L178 87.8608L175.795 88.346Z"
    fill="#CE4141"
  />
  <path
    fill-rule="evenodd"
    clip-rule="evenodd"
    d="M39.9605 136.563L35.973 142.633L43.0035 141.993L45 145.556L43.0869 146.719L42.5289 145.722L37.38 148.849L37.938 149.846L36.0379 151L33.6465 146.735L35.4132 145.663L36.2474 146.83L39.9002 144.612L32.7604 145.186L32.2497 144.273L36.2427 138.087L32.5908 140.306L33.1553 141.636L31.3905 142.708L29 138.443L30.9001 137.289L31.4581 138.284L36.607 135.158L36.0481 134.163L37.963 133L39.9605 136.563Z"
    fill="#CE4141"
  />
  <path
    fill-rule="evenodd"
    clip-rule="evenodd"
    d="M48.5054 160.899L49.4959 159.776L49.5299 153.582L48.5414 152.732L50.0689 151L54.3189 154.657L52.8983 156.267L51.8028 155.539L51.7843 158.957L55.212 158.472L54.3305 157.499L55.7511 155.889L60 159.546L58.4724 161.278L57.4849 160.428L51.2744 161.308L50.284 162.43L51.2725 163.28L49.7547 165L46 161.768L47.5169 160.048L48.5054 160.899Z"
    fill="#CE4141"
  />
  <path
    fill-rule="evenodd"
    clip-rule="evenodd"
    d="M77.3257 176.749L76.7036 179L72 177.614L72.6221 175.364L73.7211 175.687L75.4087 169.59L74.3107 169.267L74.9376 167L86 170.259L85.0635 173.644L82.8359 172.987L83.1446 171.869L77.6363 170.246L77.1642 171.955L81.8048 173.321L81.1607 175.653L76.5182 174.285L75.9496 176.344L77.3257 176.749Z"
    fill="#CE4141"
  />
  <path
    fill-rule="evenodd"
    clip-rule="evenodd"
    d="M96.1267 175.652L100.473 176.062C101.449 176.153 101.983 175.739 102.044 175.119C102.103 174.516 101.672 174.057 100.745 173.971C100.712 173.967 100.679 173.964 96.3276 173.618L96.1267 175.652ZM99.7866 178.019L95.9297 177.655L95.72 179.77L97.1856 179.907L96.9633 182.149L92 181.68L92.2213 179.44C92.9696 179.51 93.1821 179.531 93.3782 179.533L93.9799 173.445C93.6383 173.413 93.2927 173.412 92.8211 173.368L93.055 171C101.013 171.75 101.145 171.746 101.275 171.758C103.733 171.99 105.165 173.456 104.985 175.283C104.837 176.777 103.85 177.792 102.391 177.927L102.782 179.953C102.879 180.476 103.252 180.687 103.627 180.723C103.919 180.751 104.205 180.681 104.396 180.587L104.173 182.827C103.503 182.973 102.921 183.03 102.433 182.985C101.132 182.861 100.469 182.094 100.257 180.902L99.7866 178.019Z"
    fill="#CE4141"
  />
  <path
    fill-rule="evenodd"
    clip-rule="evenodd"
    d="M117.275 178.134L118.514 177.866L119 179.982L114.295 181L113.808 178.883L115.046 178.615L113.729 172.88L112.49 173.148L112 171.017L116.706 170L117.196 172.131L115.958 172.399L117.275 178.134Z"
    fill="#CE4141"
  />
  <path
    fill-rule="evenodd"
    clip-rule="evenodd"
    d="M137.028 171.159L136.38 169.798L138.423 168.871C138.423 168.871 139.993 172.205 140 172.219L129.448 177L128.504 175.02L129.527 174.557L126.972 169.194L125.95 169.656L125 167.662L135.294 163L136.712 165.976L134.639 166.916L134.171 165.932L129.045 168.254L129.761 169.757L133.072 168.257L134.049 170.306L130.737 171.806L131.6 173.618L137.028 171.159Z"
    fill="#CE4141"
  />
  <path
    fill-rule="evenodd"
    clip-rule="evenodd"
    d="M152.115 151.614L151.271 152.359L157 158.305L155.29 159.815L145.996 158.722L149.293 162.144L150.349 161.21L151.894 162.812L148.283 166L146.738 164.398L147.582 163.653L143.399 159.31L142.555 160.055L141 158.441L143.565 156.176L152.881 157.313L149.551 153.857L148.494 154.791L146.949 153.188L150.559 150L152.115 151.614Z"
    fill="#CE4141"
  />
  <path
    fill-rule="evenodd"
    clip-rule="evenodd"
    d="M163.905 145.842C163.905 145.842 164.848 144.238 165.024 143.911C166.12 141.89 165.548 140.017 163.808 138.999C162.219 138.069 160.655 138.691 159.567 140.698C159.39 141.024 158.535 142.699 158.535 142.699L163.905 145.842ZM164.951 136.726C167.718 138.345 168.858 141.467 167.291 144.356C166.952 144.982 164.122 150 164.122 150L162.177 148.861C162.177 148.861 162.629 148.095 162.753 147.867L157.466 144.772C157.342 145.001 156.945 145.799 156.945 145.799L155 144.661C155 144.661 157.852 139.169 157.999 138.899C159.527 136.081 162.404 135.234 164.951 136.726Z"
    fill="#CE4141"
  />
  <g class="bounce">
    <path
      fill-rule="evenodd"
      clip-rule="evenodd"
      d="M77.0884 114.143C78.3101 114.147 79.4978 113.782 80.5004 113.093C81.3491 115.532 83.6414 117.17 86.2282 117.182C87.4451 117.188 88.6356 116.821 89.6392 116.135C90.4832 118.574 92.7811 120.212 95.3623 120.224C96.4357 120.22 97.4903 119.926 98.4089 119.373V133.91C98.4089 135.74 99.2312 137.475 100.651 138.632C102.071 139.788 103.94 140.246 105.733 139.873C108.62 139.225 110.649 136.635 110.59 133.682V98.4167L114.761 103.175L114.764 103.179C117.442 106.214 122.033 106.623 125.208 104.104L126.274 103.253C128.073 101.865 128.53 99.3454 127.34 97.4153L116.483 79.924C112.241 72.1736 104.202 67.2536 95.3613 67C88.9009 67 82.7048 69.5637 78.1354 74.1272C73.567 78.6898 71 84.877 71 91.33V108.059C71 109.672 71.641 111.218 72.7843 112.36C73.9239 113.502 75.4731 114.143 77.0884 114.143ZM95.3613 70.0389C103.125 70.3001 110.168 74.6533 113.864 81.4751L124.692 99.0569C125.054 99.6575 124.917 100.434 124.371 100.88L123.306 101.731C121.402 103.235 118.651 102.987 117.047 101.171L110.21 93.3704V93.3666C109.794 92.8952 109.122 92.7292 108.532 92.9499C107.939 93.1752 107.548 93.7381 107.548 94.3717V133.682C107.618 135.203 106.614 136.565 105.139 136.952C104.228 137.147 103.277 136.915 102.558 136.322C101.843 135.73 101.433 134.842 101.455 133.91V103.495C101.455 102.655 100.773 101.974 99.9317 101.974C99.0914 101.974 98.4089 102.655 98.4089 103.495V114.143C98.4089 115.822 97.0447 117.182 95.3613 117.182C93.6799 117.182 92.3157 115.822 92.3157 114.143V103.495C92.3157 102.655 91.6369 101.974 90.7967 101.974C89.9555 101.974 89.2729 102.655 89.2729 103.495V111.1C89.2729 112.78 87.9087 114.143 86.2273 114.143C84.5449 114.143 83.1807 112.78 83.1807 111.1V103.495C83.1807 102.655 82.4981 101.974 81.6579 101.974C80.8167 101.974 80.135 102.655 80.135 103.495V108.059C80.135 109.738 78.7737 111.1 77.0884 111.1C75.407 111.1 74.0456 109.738 74.0456 108.059V91.33C74.0456 85.6831 76.2916 80.2701 80.2899 76.277C84.2871 72.2811 89.7081 70.038 95.3613 70.038V70.0389Z"
      fill="#CE4141"
    />
    <path
      fill-rule="evenodd"
      clip-rule="evenodd"
      d="M126.431 126.677L123.001 130.163V112.524C123.001 112.118 122.841 111.731 122.562 111.447C122.278 111.159 121.897 111 121.502 111C121.103 111 120.721 111.159 120.443 111.447C120.16 111.731 120.004 112.118 120.004 112.524V130.178L116.57 126.673V126.677C116.291 126.385 115.906 126.223 115.506 126.223C115.107 126.223 114.722 126.385 114.443 126.677C114.16 126.961 114 127.352 114 127.758C114 128.163 114.16 128.551 114.443 128.839L121.502 136L128.563 128.839H128.559C129.147 128.241 129.147 127.271 128.559 126.677C127.974 126.079 127.02 126.079 126.432 126.677H126.431Z"
      fill="#CE4141"
    />
  </g>
</svg>
