<svg width="21" height="21" viewBox="0 0 21 21" fill="none" xmlns="http://www.w3.org/2000/svg">
<path fill-rule="evenodd" clip-rule="evenodd" d="M16.2017 0.0124512H3.88128C1.74168 0.0124512 0 1.75295 0 3.89373V16.2142C0 18.355 1.74168 20.0955 3.88128 20.0955H16.2017C18.3413 20.0955 20.083 18.355 20.083 16.2142V3.89373C20.083 1.75295 18.3413 0.0124512 16.2017 0.0124512ZM17.3152 2.328L17.7592 2.32563V5.72987L14.3656 5.7405L14.3538 2.33626L17.3152 2.328ZM7.17571 7.99228C7.81806 7.10196 8.86189 6.51865 10.0415 6.51865C11.2211 6.51865 12.2649 7.10196 12.9073 7.99228C13.3265 8.57324 13.5768 9.28408 13.5768 10.054C13.5768 12.0023 11.991 13.5881 10.0415 13.5881C8.09319 13.5881 6.50738 12.0023 6.50738 10.054C6.50738 9.28408 6.75771 8.57324 7.17571 7.99228ZM18.1264 16.2142C18.1264 17.2757 17.2633 18.1389 16.2017 18.1389H3.88128C2.81975 18.1389 1.95658 17.2757 1.95658 16.2142V7.99228H4.95581C4.69603 8.62991 4.55079 9.3254 4.55079 10.054C4.55079 13.0815 7.01394 15.5458 10.0415 15.5458C13.0703 15.5458 15.5334 13.0815 15.5334 10.054C15.5334 9.3254 15.3858 8.62991 15.1284 7.99228H18.1264V16.2142Z" fill="white"/>
</svg>
